<?xml version="1.0" encoding="utf-8"?>
<svg viewBox="0 0 24 24" fill="none" id="f_icon_aff4d555" xmlns="http://www.w3.org/2000/svg">
  <circle cx="12" cy="12" r="12" fill="#1F1F22"/>
  <path fill-rule="evenodd" clip-rule="evenodd" d="M16.686 17.467a7.2 7.2 0 1 0-9.371 0l-1.563 1.822A9.58 9.58 0 0 1 2.4 12 9.6 9.6 0 0 1 12 2.4a9.6 9.6 0 0 1 9.6 9.6 9.58 9.58 0 0 1-3.352 7.29l-1.562-1.823z" fill="#CDCDCD" fill-opacity=".1"/>
  <path fill-rule="evenodd" clip-rule="evenodd" d="M16.686 17.467a7.2 7.2 0 1 0-9.371 0l-1.563 1.822A9.58 9.58 0 0 1 2.4 12 9.6 9.6 0 0 1 12 2.4a9.6 9.6 0 0 1 9.6 9.6 9.58 9.58 0 0 1-3.352 7.29l-1.562-1.823z" style="fill: rgb(0, 55, 254);"/>
  <text style="fill: rgb(0, 55, 254); font-family: Arial, sans-serif; font-size: 10.5px; white-space: pre;" x="9.08" y="15.632">?</text>
  <text style="fill: rgb(51, 51, 51); font-family: Arial, sans-serif; font-size: 0.8px; white-space: pre;" x="12.936" y="16.652"> </text>
  <text style="white-space: pre; fill: rgb(51, 51, 51); font-family: Arial, sans-serif; font-size: 0.8px;" x="9.835" y="10.282"> </text>
</svg>